<?xml version="1.0" encoding="UTF-8"?>
<!DOCTYPE svg PUBLIC "-//W3C//DTD SVG 1.1//EN" "http://www.w3.org/Graphics/SVG/1.1/DTD/svg11.dtd">
<!-- Creator: CorelDRAW 2020 (64-Bit) -->
<svg xmlns="http://www.w3.org/2000/svg" xml:space="preserve" width="86.0179mm" height="46.0477mm" version="1.1" style="shape-rendering:geometricPrecision; text-rendering:geometricPrecision; image-rendering:optimizeQuality; fill-rule:evenodd; clip-rule:evenodd"
viewBox="0 0 8587.54 4597.14"
 xmlns:xlink="http://www.w3.org/1999/xlink"
 xmlns:xodm="http://www.corel.com/coreldraw/odm/2003">
 <defs>
  <style type="text/css">
   <![CDATA[
    .fil2 {fill:#FEFEFE;fill-rule:nonzero}
    .fil0 {fill:#045078;fill-rule:nonzero}
    .fil1 {fill:url(#id0)}
   ]]>
  </style>
  <linearGradient id="id0" gradientUnits="userSpaceOnUse" x1="-0" y1="4152.34" x2="8266.17" y2="4152.34">
   <stop offset="0" style="stop-opacity:1; stop-color:#E31E24"/>
   <stop offset="1" style="stop-opacity:1; stop-color:#0096DA"/>
  </linearGradient>
 </defs>
 <g id="Layer_x0020_1">
  <metadata id="CorelCorpID_0Corel-Layer"/>
  <g id="_616943088">
   <path class="fil0" d="M2388.34 1125.42l-27.23 0 33.81 -226.99c3.3,-22.19 -4.12,-33.27 -22.28,-33.27l-671.89 0c-86.76,0 -149.58,18.66 -188.43,55.98 -38.84,37.32 -65.64,105.42 -80.37,204.29l-34.72 233.06c-14.12,94.79 -7.09,159.39 21.09,193.67 28.17,34.31 85.67,51.47 172.42,51.47l1183.37 0 -72.58 487.25 -1286.29 0c-123.08,0 -225.16,-15.61 -306.25,-46.89 -81.1,-31.28 -144.58,-75.67 -190.49,-133.19 -45.91,-57.48 -74.97,-126.62 -87.15,-207.3 -12.22,-80.72 -10.77,-171.51 4.25,-272.39l50.96 -342.01c14.73,-98.88 40.25,-189.14 76.66,-270.85 36.37,-81.71 86.1,-151.35 149.14,-208.82 63.05,-57.51 139.76,-101.91 230.17,-133.19 90.41,-31.28 197.15,-46.9 320.23,-46.9l1231.81 0c54.48,0 77.66,27.24 69.54,81.71l-64.02 429.78 -511.75 184.59zm2811.46 305.69c-15.03,100.88 -40.63,191.67 -76.89,272.39 -36.22,80.68 -85.88,149.81 -148.91,207.3 -63.05,57.51 -140.26,101.91 -231.68,133.19 -91.45,31.28 -198.69,46.89 -321.77,46.89l-798.99 0c-123.07,0 -225.16,-15.61 -306.25,-46.89 -81.1,-31.28 -144.58,-75.67 -190.48,-133.19 -45.92,-57.48 -74.98,-126.62 -87.16,-207.3 -12.21,-80.72 -10.77,-171.51 4.25,-272.39l50.96 -342.01c14.73,-98.88 40.25,-189.14 76.66,-270.85 36.37,-81.71 86.11,-151.35 149.14,-208.82 63.05,-57.51 139.76,-101.91 230.17,-133.19 90.42,-31.28 197.15,-46.9 320.23,-46.9l798.99 0c123.08,0 225.67,15.62 307.79,46.9 82.1,31.28 146.09,75.67 191.99,133.19 45.91,57.47 74.9,127.11 86.93,208.82 12.06,81.71 10.7,171.97 -4.03,270.85l-50.95 342.01zm-806.53 172.51c86.76,0 149.86,-17.16 189.26,-51.47 39.42,-34.28 66.2,-98.88 80.33,-193.67l34.71 -233.06c15.04,-100.87 7.59,-169.47 -22.31,-205.79 -29.91,-36.32 -87.23,-54.48 -171.97,-54.48l-596.21 0c-86.75,0 -149.58,18.66 -188.43,55.98 -38.84,37.32 -65.63,105.42 -80.37,204.29l-34.72 233.06c-14.12,94.79 -7.08,159.39 21.1,193.67 28.16,34.31 85.66,51.47 172.41,51.47l596.21 0zm3191.43 -172.51c-15.03,100.88 -40.63,191.67 -76.89,272.39 -36.22,80.68 -85.87,149.81 -148.91,207.3 -63.05,57.51 -140.26,101.91 -231.67,133.19 -91.46,31.28 -198.7,46.89 -321.77,46.89l-798.99 0c-123.08,0 -225.17,-15.61 -306.26,-46.89 -81.1,-31.28 -144.57,-75.67 -190.48,-133.19 -45.91,-57.48 -74.98,-126.62 -87.16,-207.3 -12.21,-80.72 -10.76,-171.51 4.26,-272.39l50.95 -342.01c14.74,-98.88 40.26,-189.14 76.67,-270.85 36.37,-81.71 86.1,-151.35 149.13,-208.82 63.05,-57.51 139.76,-101.91 230.18,-133.19 90.41,-31.28 197.15,-46.9 320.23,-46.9l798.99 0c123.07,0 225.66,15.62 307.79,46.9 82.09,31.28 146.08,75.67 191.99,133.19 45.91,57.47 74.9,127.11 86.92,208.82 12.07,81.71 10.7,171.97 -4.02,270.85l-50.96 342.01zm-806.53 172.51c86.76,0 149.87,-17.16 189.26,-51.47 39.42,-34.28 66.21,-98.88 80.33,-193.67l34.72 -233.06c15.03,-100.87 7.59,-169.47 -22.32,-205.79 -29.9,-36.32 -87.22,-54.48 -171.96,-54.48l-596.21 0c-86.76,0 -149.59,18.66 -188.43,55.98 -38.84,37.32 -65.64,105.42 -80.37,204.29l-34.72 233.06c-14.13,94.79 -7.09,159.39 21.09,193.67 28.16,34.31 85.67,51.47 172.42,51.47l596.2 0zm962.51 487.25l299.1 -2090.88 547.77 0 -299.1 2090.88 -547.77 0zm-7565.5 1059.01l1297.87 0c18.51,0 31.88,-3.79 39.89,-11.3 8.09,-7.54 13.41,-19.98 16,-37.35l3.1 -20.88c1.9,-12.73 1,-22.31 -2.67,-28.67 -3.69,-6.36 -12.4,-10.11 -26.13,-11.29l-584.99 -50.37c-72.13,-5.79 -122.6,-28.38 -151.51,-67.78 -28.87,-39.39 -38.4,-92.08 -28.56,-158.11l11.39 -76.45c10.35,-69.49 37.63,-124.22 81.79,-164.19 44.2,-39.96 109.7,-59.94 196.59,-59.94l860.05 0c28.95,0 41.27,14.48 36.96,43.43l-31.84 213.73 -286.04 100.77 -12.19 0 16.3 -109.46c1.39,-9.29 -1.97,-13.91 -10.08,-13.91l-496.91 0c-17.37,0 -30.08,3.46 -38.05,10.4 -8.01,6.97 -13.2,18.55 -15.61,34.74l-3.88 26.1c-2.42,16.19 -1.36,26.64 3.16,31.28 4.53,4.61 13.56,8.08 27.13,10.4l597.59 59.09c40.02,3.46 72.5,11 97.4,22.59 24.91,11.58 44.07,26.92 57.45,46.03 13.35,19.09 21.14,42.58 23.37,70.35 2.26,27.8 0.61,60.23 -4.92,97.3l-10.61 71.24c-11.39,76.46 -40.24,135.55 -86.35,177.23 -46.17,41.72 -120.23,62.56 -222.18,62.56l-1393.42 0 39.86 -267.56zm2173.01 -276.28l-12.15 0 -22 147.7c-8.11,54.44 -4.41,91.79 11.11,112.06 15.5,20.27 48.74,30.38 99.71,30.38l679.35 0 -37.8 253.69 -738.43 0c-70.63,0 -129.25,-8.98 -175.8,-26.92 -46.57,-17.98 -83.03,-43.47 -109.39,-76.46 -26.36,-33.03 -43.01,-72.71 -50.01,-119.03 -7.01,-46.32 -6.21,-98.45 2.42,-156.35l29.25 -196.35c8.63,-57.9 23.36,-110.03 44.17,-156.39 20.81,-46.32 49.28,-86.01 85.47,-118.99 36.2,-33.04 80.25,-58.52 132.18,-76.46 51.89,-17.95 113.17,-26.92 183.81,-26.92l550.82 0c72.95,0 122.31,18.8 147.94,56.44 25.66,37.68 32.57,96.45 20.66,176.38l-13.72 92.08c-10.52,70.67 -34.55,126.86 -72.04,168.54 -37.46,41.72 -92.72,62.56 -165.68,62.56l-557.74 0 -32.13 -145.95zm-5.16 -46.9l479.52 0c35.93,0 56.64,-18.55 62.16,-55.62l5.18 -34.74c2.94,-19.7 0.68,-33.6 -6.8,-41.72 -7.49,-8.08 -20.5,-12.15 -39.05,-12.15l-347.49 0c-48.65,0 -84.33,10.15 -107.04,30.42 -22.72,20.27 -37.95,56.48 -45.7,108.6l-0.78 5.21zm976.28 -126.86l35.2 -236.28 886.1 0c62.56,0 106.01,17.37 130.39,52.11 24.35,34.74 31.61,85.15 21.77,151.17l-105.6 708.88c-4.14,27.8 -19.55,41.71 -46.17,41.71l-832.28 0c-34.74,0 -65.08,-4.36 -90.99,-13.05 -25.95,-8.69 -46.91,-23.45 -62.9,-44.29 -16.02,-20.85 -26.4,-48.37 -31.17,-82.54 -4.74,-34.16 -3.33,-76.74 4.25,-127.68l10.61 -71.24c13.47,-90.37 42.49,-154.92 87.1,-193.75 44.57,-38.82 101.61,-58.19 171.1,-58.19l484.79 0 38.09 140.74 12.19 0 28.73 -192.89c3.97,-26.63 1.32,-45.75 -7.97,-57.33 -9.28,-11.58 -24.94,-17.37 -46.96,-17.37l-686.28 0zm661.52 481.28c12.73,0 20.16,-6.93 22.23,-20.84l21.74 -145.95 -413.55 0c-20.84,0 -36.38,5.21 -46.61,15.65 -10.24,10.4 -16.93,26.06 -20.04,46.89l-6.22 41.72c-2.93,19.66 -0.86,35.03 6.19,46.04 7.05,11 21,16.47 41.84,16.47l394.42 0zm477.25 -31.24l780.16 0c18.52,0 31.85,-3.79 39.9,-11.3 8.09,-7.54 13.41,-19.98 15.99,-37.35l3.11 -20.88c1.9,-12.73 1,-22.31 -2.67,-28.67 -3.69,-6.36 -12.4,-10.11 -26.13,-11.29l-584.99 -50.37c-72.13,-5.79 -122.6,-28.38 -151.51,-67.78 -28.87,-39.39 -38.4,-92.08 -28.56,-158.11l11.39 -76.45c10.35,-69.49 37.63,-124.22 81.79,-164.19 44.2,-39.96 109.7,-59.94 196.59,-59.94l860.04 0c28.96,0 41.28,14.48 36.97,43.43l-31.84 213.73 -286.05 100.77 -12.18 0 16.3 -109.46c1.38,-9.29 -1.97,-13.91 -10.08,-13.91l-496.91 0c-17.37,0 -30.08,3.46 -38.05,10.4 -8.01,6.97 -13.2,18.55 -15.61,34.74l-3.88 26.1c-2.42,16.19 -1.36,26.64 3.16,31.28 4.53,4.61 13.56,8.08 27.12,10.4l597.6 59.09c40.01,3.46 72.5,11 97.4,22.59 24.91,11.58 44.07,26.92 57.45,46.03 13.35,19.09 21.14,42.58 23.37,70.35 2.26,27.8 0.6,60.23 -4.92,97.3l-10.61 71.24c-11.39,76.46 -40.17,135.55 -86.35,177.23 -46.17,41.72 -120.24,62.56 -222.18,62.56l-875.71 0 39.85 -267.56zm2535.94 -111.21c-8.63,57.9 -23.32,110.03 -44.13,156.35 -20.81,46.32 -49.31,86.01 -85.51,119.03 -36.19,33 -80.53,58.48 -133,76.46 -52.5,17.94 -114.07,26.92 -184.7,26.92l-458.73 0c-70.63,0 -129.25,-8.98 -175.79,-26.92 -46.58,-17.98 -83.03,-43.47 -109.4,-76.46 -26.36,-33.03 -43,-72.71 -50.01,-119.03 -7.01,-46.32 -6.21,-98.45 2.42,-156.35l29.25 -196.35c8.46,-56.77 23.15,-108.6 44.04,-155.49 20.9,-46.93 49.41,-86.91 85.6,-119.89 36.2,-33.04 80.25,-58.52 132.18,-76.46 51.89,-17.95 113.17,-26.92 183.81,-26.92l458.73 0c70.63,0 129.54,8.97 176.69,26.92 47.12,17.94 83.86,43.43 110.22,76.46 26.37,32.99 43,72.96 49.92,119.89 6.92,46.89 6.13,98.73 -2.33,155.49l-29.25 196.35zm-463 99.02c49.8,0 86.01,-9.83 108.63,-29.53 22.63,-19.69 37.99,-56.76 46.09,-111.21l19.94 -133.8c8.63,-57.9 4.37,-97.3 -12.79,-118.13 -17.16,-20.85 -50.07,-31.28 -98.72,-31.28l-342.3 0c-49.8,0 -85.85,10.72 -108.17,32.14 -22.31,21.44 -37.69,60.55 -46.13,117.28l-19.94 133.8c-8.11,54.45 -4.08,91.52 12.11,111.21 16.18,19.7 49.18,29.53 98.98,29.53l342.3 0zm694.63 -674.13l778.41 0c70.66,0 129.57,8.97 176.69,26.92 47.12,17.94 83.57,43.43 109.36,76.46 25.79,32.99 42.18,72.67 49.19,118.99 6.96,46.36 6.17,98.49 -2.46,156.39l-85.68 575.12 -314.49 0 82.56 -554.28c8.29,-55.58 3.62,-94.4 -13.94,-116.39 -17.56,-22.01 -50.1,-33.03 -97.6,-33.03l-340.56 0 -31.41 -138.98 -12.16 0 -125.53 842.67 -314.49 0 142.09 -953.88z"/>
   <polygon class="fil1" points="125.26,3707.53 8266.17,3707.53 8140.9,4597.14 -0,4597.14 "/>
   <path class="fil2" d="M511.89 4400.56l67.28 -497.12 104.18 0 -26.43 193.28 203.02 0 26.42 -193.28 103.6 0 -67.05 497.12 -104.17 0 29.29 -215.53 -202.32 0 -29.29 215.53 -104.53 0zm513.36 0l67.28 -497.12 295.37 0 -11.21 87.6 -192.82 0 -15.01 111.93 192.12 0 -11.43 85.52 -192.59 0 -16.67 124.45 192.82 0 -12.25 87.6 -295.61 0zm344.3 0l259.17 -497.12 113.33 0 117.77 497.12 -110.43 0 -20.59 -107.07 -189.12 0 -54.04 107.07 -116.11 0zm340.1 -188.42l-23.34 -117.5 -5.98 -43.46 -4.87 -61.53c-2.24,9.04 -4.7,17.61 -7.4,25.84 -2.58,8.11 -5.39,15.99 -8.19,23.64 -2.82,7.53 -5.86,15.17 -9.13,22.82 -3.15,7.77 -6.3,14.84 -9.57,21.44l-60.84 128.74 129.33 0zm249.39 188.42l55.49 -410.21 -129.09 0 11.91 -86.91 352.73 0 -11.56 86.91 -120.17 0 -55.14 410.21 -104.18 0zm285.9 0l67.05 -497.12 104.17 0 -66.93 497.12 -104.29 0zm207.21 0l67.28 -497.12 108.35 0 152.84 256.32c8.75,14.95 15.66,27.12 20.84,36.61 4.49,8.12 9.21,17.04 14.17,26.78 6.09,12.98 11.72,26.42 16.88,40.44 0.04,-10.66 0.3,-20.64 0.92,-30.02 0.61,-9.38 1.47,-20.16 2.68,-32.1l4.2 -42.76 35.23 -255.28 97.8 0 -67.63 497.12 -100.93 0 -169.99 -289.23c-10.35,-17.61 -18.76,-33.03 -25.32,-46.12 -6.44,-13.09 -12.07,-26.07 -16.78,-38.7l-0.06 15.98c-0.02,5.8 -0.28,15.41 -0.79,28.62 -0.52,13.21 -0.77,20.17 -0.78,20.52 -0.03,9.15 -0.64,18.65 -1.84,28.5 -1.08,7.54 -1.91,12.98 -2.38,16.34l-37.93 264.08 -96.76 0zm972.92 -345.55c-14.17,-23.99 -32.18,-42.53 -54.15,-55.51 -21.84,-13.09 -46.39,-19.58 -73.51,-19.58 -49.6,0 -90.69,18.19 -123.27,54.69 -32.58,36.5 -48.97,82.5 -49.17,138.01 -0.17,45.65 13.03,82.04 39.46,109.27 26.44,27.23 62.09,40.79 106.93,40.79 30.71,0 57.62,-8.35 80.63,-25.03 23,-16.8 39.77,-40.21 50.31,-70.22l-117.72 0 11.44 -86.91 225.5 0c-0.15,41.71 -7.13,80.07 -20.82,115.07 -12.87,32.56 -31.04,61.3 -54.65,86.33 -44.8,47.39 -105.02,71.15 -180.8,71.15 -75.21,0 -135.04,-21.67 -179.5,-64.89 -44.57,-43.34 -66.72,-101.39 -66.45,-174.17 0.13,-36.15 6.74,-71.26 19.73,-105.22 12.99,-34.06 31.29,-64.66 54.8,-91.78 23.5,-27.12 53,-47.97 88.52,-62.69 35.39,-14.72 74.36,-22.01 116.66,-22.01 48.43,0 89.77,8.69 124,26.19 34.23,17.38 61.84,43.69 83.03,78.8l-80.98 57.7zm1459.75 327.01c-20.78,10.08 -43.41,17.84 -67.63,23.17 -24.24,5.22 -49.86,7.89 -77.09,7.89 -72.54,0 -131.09,-21.79 -175.56,-65.24 -44.46,-43.57 -66.49,-100.46 -66.24,-170.69 0.14,-36.62 6.4,-71.73 18.93,-105.34 12.4,-33.6 30.47,-63.61 54.2,-90.04 25.84,-29.08 56.98,-51.44 93.31,-66.98 36.2,-15.4 75.74,-23.17 118.5,-23.17 30.13,0 58.39,3.7 84.78,11.24 26.51,7.42 51.49,18.77 74.98,33.95l-14.97 97.45c-24.84,-17.61 -49.24,-30.94 -73.2,-39.74 -23.96,-8.81 -47.92,-13.21 -71.91,-13.21 -52.49,0 -95.44,17.84 -128.71,53.53 -33.27,35.69 -50.01,81.35 -50.22,137.08 -0.16,45.89 12.8,82.27 39.02,109.39 26.09,27.12 61.38,40.67 105.64,40.67 28.74,0 55.4,-3.82 79.77,-11.47 24.48,-7.65 47.34,-19.35 68.73,-35.11l-12.33 106.61zm375.76 -400.01c-49.13,0 -90.1,17.96 -122.91,53.99 -32.81,36.04 -49.32,81.35 -49.52,135.92 -0.08,23.53 2.98,44.27 9.28,62.23 6.31,17.96 16.21,33.95 29.72,47.86 26.32,27.12 61.62,40.67 105.77,40.67 48.67,0 89.51,-18.31 122.57,-55.04 33.04,-36.62 49.65,-82.04 49.85,-135.92 0.17,-45.89 -12.79,-82.27 -39,-109.28 -26.1,-27 -61.39,-40.43 -105.77,-40.43zm-33.65 431.06c-73.93,0 -133.41,-21.67 -178.22,-65.13 -44.92,-43.34 -67.19,-101.15 -66.93,-173.23 0.13,-35.69 6.52,-70.1 19.27,-103.02 12.64,-33.03 30.82,-63.04 54.44,-89.92 26.07,-28.85 57.2,-51.22 93.42,-66.74 36.08,-15.64 75.29,-23.41 117.69,-23.41 74.16,0 133.64,21.43 178.45,64.19 44.69,42.88 66.96,99.65 66.7,170.46 -0.13,36.39 -5.93,70.92 -17.52,103.6 -11.48,32.56 -28.26,61.53 -50.03,86.56 -27.46,31.64 -59.64,55.63 -96.44,72.08 -36.91,16.33 -77.14,24.57 -120.83,24.57zm619.32 -431.06c-49.13,0 -90.1,17.96 -122.91,53.99 -32.81,36.04 -49.32,81.35 -49.52,135.92 -0.08,23.53 2.98,44.27 9.28,62.23 6.31,17.96 16.21,33.95 29.72,47.86 26.32,27.12 61.62,40.67 105.77,40.67 48.67,0 89.51,-18.31 122.57,-55.04 33.04,-36.62 49.65,-82.04 49.85,-135.92 0.17,-45.89 -12.79,-82.27 -39,-109.28 -26.1,-27 -61.39,-40.43 -105.77,-40.43zm-33.65 431.06c-73.93,0 -133.41,-21.67 -178.22,-65.13 -44.92,-43.34 -67.19,-101.15 -66.93,-173.23 0.13,-35.69 6.52,-70.1 19.27,-103.02 12.64,-33.03 30.82,-63.04 54.44,-89.92 26.07,-28.85 57.2,-51.22 93.42,-66.74 36.08,-15.64 75.29,-23.41 117.69,-23.41 74.16,0 133.64,21.43 178.45,64.19 44.69,42.88 66.96,99.65 66.7,170.46 -0.13,36.39 -5.93,70.92 -17.52,103.6 -11.48,32.56 -28.26,61.53 -50.03,86.56 -27.46,31.64 -59.64,55.63 -96.44,72.08 -36.91,16.33 -77.14,24.57 -120.83,24.57zm330.54 -12.52l67.28 -497.12 104.18 0 -55.72 408.81 172.42 0 -11.91 88.3 -276.25 0zm334.11 0l67.05 -497.12 104.17 0 -66.93 497.12 -104.29 0zm207.21 0l67.28 -497.12 108.35 0 152.84 256.32c8.75,14.95 15.66,27.12 20.84,36.61 4.49,8.12 9.21,17.04 14.17,26.78 6.09,12.98 11.72,26.42 16.88,40.44 0.04,-10.66 0.3,-20.64 0.92,-30.02 0.61,-9.38 1.47,-20.16 2.68,-32.1l4.2 -42.76 35.23 -255.28 97.8 0 -67.63 497.12 -100.93 0 -169.99 -289.23c-10.35,-17.61 -18.76,-33.03 -25.32,-46.12 -6.44,-13.09 -12.07,-26.07 -16.78,-38.7l-0.06 15.98c-0.02,5.8 -0.28,15.41 -0.79,28.62 -0.52,13.21 -0.77,20.17 -0.78,20.52 -0.03,9.15 -0.64,18.65 -1.84,28.5 -1.08,7.54 -1.91,12.98 -2.38,16.34l-37.93 264.08 -96.76 0zm972.92 -345.55c-14.17,-23.99 -32.18,-42.53 -54.15,-55.51 -21.84,-13.09 -46.39,-19.58 -73.51,-19.58 -49.6,0 -90.69,18.19 -123.27,54.69 -32.58,36.5 -48.97,82.5 -49.17,138.01 -0.17,45.65 13.03,82.04 39.46,109.27 26.44,27.23 62.09,40.79 106.93,40.79 30.71,0 57.62,-8.35 80.63,-25.03 23,-16.8 39.77,-40.21 50.31,-70.22l-117.72 0 11.44 -86.91 225.5 0c-0.15,41.71 -7.13,80.07 -20.82,115.07 -12.87,32.56 -31.04,61.3 -54.65,86.33 -44.8,47.39 -105.02,71.15 -180.8,71.15 -75.21,0 -135.04,-21.67 -179.5,-64.89 -44.57,-43.34 -66.72,-101.39 -66.45,-174.17 0.13,-36.15 6.74,-71.26 19.73,-105.22 12.99,-34.06 31.29,-64.66 54.8,-91.78 23.5,-27.12 53,-47.97 88.52,-62.69 35.39,-14.72 74.36,-22.01 116.66,-22.01 48.43,0 89.77,8.69 124,26.19 34.23,17.38 61.84,43.69 83.03,78.8l-80.98 57.7zm-3678.12 13.21c20.9,-10.66 36.7,-22.01 47.4,-34.06 10.71,-12.17 16.07,-24.69 16.12,-37.55 0.04,-12.4 -3.85,-22.59 -11.82,-30.59 -7.39,-7.89 -17.34,-11.82 -29.74,-11.82 -13.21,0 -24,4.63 -32.5,13.79 -8.49,9.15 -12.82,20.86 -12.87,35.11 -0.03,7.42 1.68,15.99 5.12,25.73 3.44,9.73 9.53,22.82 18.28,39.39zm43 219.59l-73.18 -108.34c-22.65,14.26 -39.05,27.92 -49.17,41.13 -10.13,13.1 -15.16,27.23 -15.22,42.41 -0.06,17.85 5.33,32.69 16.3,44.27 10.96,11.71 25.08,17.5 42.46,17.5 12.17,0 24.81,-3.01 37.81,-9.15 13.12,-6.14 26.72,-15.41 41,-27.81zm77.35 112.75l-31.01 -45.88c-19.77,20.16 -40.33,34.87 -61.69,44.27 -21.24,9.38 -45.13,14.14 -71.31,14.14 -45.08,0 -81.42,-13.22 -109.14,-39.51 -27.59,-26.31 -41.37,-60.38 -41.22,-102.21 0.12,-32.56 9.96,-62 29.52,-88.18 19.56,-26.19 50.02,-50.52 91.35,-72.89 -13.25,-22.59 -23.03,-42.52 -29.23,-59.67 -6.3,-17.15 -9.37,-33.15 -9.31,-47.74 0.11,-31.64 12.14,-58.17 35.98,-79.38 23.82,-21.2 54.34,-31.87 91.65,-31.87 38.24,0 69.6,9.96 93.98,29.9 24.38,19.93 36.46,45.19 36.35,75.66 -0.09,23.99 -8.05,46.58 -24.01,67.79 -15.95,21.1 -43.15,44.27 -81.47,69.41l65.58 96.41c18.14,-17.62 32.1,-31.87 41.87,-42.76l27.23 -31.52 54 62.46 -43.86 47.51 -30.01 29.89 75.3 104.18 -110.55 0z"/>
  </g>
 </g>
</svg>
